HIERARCHY
ROOT Root
{
  OFFSET 0.0 0.0 0.0
  CHANNELS 6 Xposition Yposition Zposition Zrotation Yrotation Xrotation
  JOINT Hips
  {
    OFFSET 0.0 100.0 0.0
    CHANNELS 6 Xposition Yposition Zposition Zrotation Yrotation Xrotation
    JOINT Spine1
    {
      OFFSET -0.013727 5.003763 -0.053727
      CHANNELS 3 Zrotation Yrotation Xrotation
      JOINT Spine2
      {
        OFFSET -0.0 7.125301 -0.029825
        CHANNELS 3 Zrotation Yrotation Xrotation
        JOINT Chest
        {
          OFFSET -1e-06 7.550063 -0.815971
          CHANNELS 3 Zrotation Yrotation Xrotation
          JOINT Neck1
          {
            OFFSET -0.181677 26.311295 -0.553348
            CHANNELS 3 Zrotation Yrotation Xrotation
            JOINT Neck2
            {
              OFFSET -3e-06 7.709397 2.302585
              CHANNELS 3 Zrotation Yrotation Xrotation
              JOINT Head
              {
                OFFSET -5e-06 6.128916 1.953709
                CHANNELS 3 Zrotation Yrotation Xrotation
                JOINT HeadEnd
                {
                  OFFSET 0.003598 16.065403 -1.835379
                  CHANNELS 3 Zrotation Yrotation Xrotation
                }
                JOINT Jaw
                {
                  OFFSET 0.002637 0.475592 3.094941
                  CHANNELS 3 Zrotation Yrotation Xrotation
                }
                JOINT LeftEye
                {
                  OFFSET 3.206381 5.380205 7.586883
                  CHANNELS 3 Zrotation Yrotation Xrotation
                }
                JOINT RightEye
                {
                  OFFSET -3.22244 5.361869 7.558234
                  CHANNELS 3 Zrotation Yrotation Xrotation
                }
              }
            }
          }
          JOINT LeftShoulder
          {
            OFFSET 1.621652 23.237164 5.113413
            CHANNELS 3 Zrotation Yrotation Xrotation
            JOINT LeftArm
            {
              OFFSET 14.919846 2e-06 -5.502326
              CHANNELS 3 Zrotation Yrotation Xrotation
              JOINT LeftForeArm
              {
                OFFSET 28.739307 0.0 -0.002588
                CHANNELS 3 Zrotation Yrotation Xrotation
                JOINT LeftHand
                {
                  OFFSET 27.093981 -1e-06 0.002609
                  CHANNELS 3 Zrotation Yrotation Xrotation
                  JOINT LeftHandThumb1
                  {
                    OFFSET 2.276482 -1.392045 3.191413
                    CHANNELS 3 Zrotation Yrotation Xrotation
                    JOINT LeftHandThumb2
                    {
                      OFFSET 4.012836 -1.828127 1.641654
                      CHANNELS 3 Zrotation Yrotation Xrotation
                      JOINT LeftHandThumb3
                      {
                        OFFSET 2.798515 0.0 -3e-06
                        CHANNELS 3 Zrotation Yrotation Xrotation
                        JOINT LeftHandThumbEnd
                        {
                          OFFSET 3.180793 -4e-06 4e-06
                          CHANNELS 3 Zrotation Yrotation Xrotation
                        }
                      }
                    }
                  }
                  JOINT LeftHandIndex1
                  {
                    OFFSET 3.247555 -0.531998 2.296169
                    CHANNELS 3 Zrotation Yrotation Xrotation
                    JOINT LeftHandIndex2
                    {
                      OFFSET 6.364578 0.01206 0.1786
                      CHANNELS 3 Zrotation Yrotation Xrotation
                      JOINT LeftHandIndex3
                      {
                        OFFSET 3.662364 0.0 0.0
                        CHANNELS 3 Zrotation Yrotation Xrotation
                        JOINT LeftHandIndex4
                        {
                          OFFSET 2.329242 4e-06 4e-06
                          CHANNELS 3 Zrotation Yrotation Xrotation
                          JOINT LeftHandIndexEnd
                          {
                            OFFSET 2.759615 -0.180537 -0.113024
                            CHANNELS 3 Zrotation Yrotation Xrotation
                          }
                        }
                      }
                    }
                  }
                  JOINT LeftHandMiddle1
                  {
                    OFFSET 3.163495 0.240981 1.000332
                    CHANNELS 3 Zrotation Yrotation Xrotation
                    JOINT LeftHandMiddle2
                    {
                      OFFSET 6.19078 -0.259278 -1.002548
                      CHANNELS 3 Zrotation Yrotation Xrotation
                      JOINT LeftHandMiddle3
                      {
                        OFFSET 4.35652 -4e-06 -1e-06
                        CHANNELS 3 Zrotation Yrotation Xrotation
                        JOINT LeftHandMiddle4
                        {
                          OFFSET 2.996877 -8e-06 0.0
                          CHANNELS 3 Zrotation Yrotation Xrotation
                          JOINT LeftHandMiddleEnd
                          {
                            OFFSET 2.304287 -0.294569 -0.031741
                            CHANNELS 3 Zrotation Yrotation Xrotation
                          }
                        }
                      }
                    }
                  }
                  JOINT LeftHandRing1
                  {
                    OFFSET 2.882643 -0.053652 -0.322543
                    CHANNELS 3 Zrotation Yrotation Xrotation
                    JOINT LeftHandRing2
                    {
                      OFFSET 5.854541 -0.486202 -1.373841
                      CHANNELS 3 Zrotation Yrotation Xrotation
                      JOINT LeftHandRing3
                      {
                        OFFSET 4.350578 0.0 3e-06
                        CHANNELS 3 Zrotation Yrotation Xrotation
                        JOINT LeftHandRing4
                        {
                          OFFSET 2.651321 7e-06 2e-06
                          CHANNELS 3 Zrotation Yrotation Xrotation
                          JOINT LeftHandRingEnd
                          {
                            OFFSET 1.936105 0.077687 -7.1e-05
                            CHANNELS 3 Zrotation Yrotation Xrotation
                          }
                        }
                      }
                    }
                  }
                  JOINT LeftHandPinky1
                  {
                    OFFSET 2.8655 -0.310005 -1.600378
                    CHANNELS 3 Zrotation Yrotation Xrotation
                    JOINT LeftHandPinky2
                    {
                      OFFSET 5.087849 -1.331141 -1.77123
                      CHANNELS 3 Zrotation Yrotation Xrotation
                      JOINT LeftHandPinky3
                      {
                        OFFSET 3.070974 4e-06 0.0
                        CHANNELS 3 Zrotation Yrotation Xrotation
                        JOINT LeftHandPinky4
                        {
                          OFFSET 1.549672 0.0 1e-06
                          CHANNELS 3 Zrotation Yrotation Xrotation
                          JOINT LeftHandPinkyEnd
                          {
                            OFFSET 1.944893 -0.157802 0.057219
                            CHANNELS 3 Zrotation Yrotation Xrotation
                          }
                        }
                      }
                    }
                  }
                }
              }
            }
          }
          JOINT RightShoulder
          {
            OFFSET -1.380118 23.180309 5.214158
            CHANNELS 3 Zrotation Yrotation Xrotation
            JOINT RightArm
            {
              OFFSET -15.037196 1.2e-05 -5.545604
              CHANNELS 3 Zrotation Yrotation Xrotation
              JOINT RightForeArm
              {
                OFFSET -28.736639 2e-06 -0.002597
                CHANNELS 3 Zrotation Yrotation Xrotation
                JOINT RightHand
                {
                  OFFSET -27.133619 -0.0 0.002613
                  CHANNELS 3 Zrotation Yrotation Xrotation
                  JOINT RightHandThumb1
                  {
                    OFFSET -2.274032 -1.383988 3.163127
                    CHANNELS 3 Zrotation Yrotation Xrotation
                    JOINT RightHandThumb2
                    {
                      OFFSET -4.011429 -1.827466 1.640914
                      CHANNELS 3 Zrotation Yrotation Xrotation
                      JOINT RightHandThumb3
                      {
                        OFFSET -2.794935 -4e-06 -3e-06
                        CHANNELS 3 Zrotation Yrotation Xrotation
                        JOINT RightHandThumbEnd
                        {
                          OFFSET -3.183852 4e-06 1e-06
                          CHANNELS 3 Zrotation Yrotation Xrotation
                        }
                      }
                    }
                  }
                  JOINT RightHandIndex1
                  {
                    OFFSET -3.253266 -0.520057 2.282866
                    CHANNELS 3 Zrotation Yrotation Xrotation
                    JOINT RightHandIndex2
                    {
                      OFFSET -6.341917 0.012471 0.178266
                      CHANNELS 3 Zrotation Yrotation Xrotation
                      JOINT RightHandIndex3
                      {
                        OFFSET -3.654871 -8e-06 -0.0
                        CHANNELS 3 Zrotation Yrotation Xrotation
                        JOINT RightHandIndex4
                        {
                          OFFSET -2.327586 0.0 1e-06
                          CHANNELS 3 Zrotation Yrotation Xrotation
                          JOINT RightHandIndexEnd
                          {
                            OFFSET -2.76179 -0.180656 -0.113078
                            CHANNELS 3 Zrotation Yrotation Xrotation
                          }
                        }
                      }
                    }
                  }
                  JOINT RightHandMiddle1
                  {
                    OFFSET -3.168106 0.246593 1.00103
                    CHANNELS 3 Zrotation Yrotation Xrotation
                    JOINT RightHandMiddle2
                    {
                      OFFSET -6.180828 -0.258836 -1.000895
                      CHANNELS 3 Zrotation Yrotation Xrotation
                      JOINT RightHandMiddle3
                      {
                        OFFSET -4.348901 0.0 -0.0
                        CHANNELS 3 Zrotation Yrotation Xrotation
                        JOINT RightHandMiddle4
                        {
                          OFFSET -3.00024 -4e-06 -2e-06
                          CHANNELS 3 Zrotation Yrotation Xrotation
                          JOINT RightHandMiddleEnd
                          {
                            OFFSET -2.30252 -0.29437 -0.031706
                            CHANNELS 3 Zrotation Yrotation Xrotation
                          }
                        }
                      }
                    }
                  }
                  JOINT RightHandRing1
                  {
                    OFFSET -2.88569 -0.067952 -0.308858
                    CHANNELS 3 Zrotation Yrotation Xrotation
                    JOINT RightHandRing2
                    {
                      OFFSET -5.854198 -0.48613 -1.373731
                      CHANNELS 3 Zrotation Yrotation Xrotation
                      JOINT RightHandRing3
                      {
                        OFFSET -4.33881 -4e-06 -0.0
                        CHANNELS 3 Zrotation Yrotation Xrotation
                        JOINT RightHandRing4
                        {
                          OFFSET -2.654903 -4e-06 4e-06
                          CHANNELS 3 Zrotation Yrotation Xrotation
                          JOINT RightHandRingEnd
                          {
                            OFFSET -1.933568 0.077527 -5.2e-05
                            CHANNELS 3 Zrotation Yrotation Xrotation
                          }
                        }
                      }
                    }
                  }
                  JOINT RightHandPinky1
                  {
                    OFFSET -2.866425 -0.342796 -1.584145
                    CHANNELS 3 Zrotation Yrotation Xrotation
                    JOINT RightHandPinky2
                    {
                      OFFSET -5.091371 -1.332055 -1.772385
                      CHANNELS 3 Zrotation Yrotation Xrotation
                      JOINT RightHandPinky3
                      {
                        OFFSET -3.062664 -4e-06 1e-06
                        CHANNELS 3 Zrotation Yrotation Xrotation
                        JOINT RightHandPinky4
                        {
                          OFFSET -1.546529 4e-06 -2e-06
                          CHANNELS 3 Zrotation Yrotation Xrotation
                          JOINT RightHandPinkyEnd
                          {
                            OFFSET -1.945119 -0.157718 0.057211
                            CHANNELS 3 Zrotation Yrotation Xrotation
                          }
                        }
                      }
                    }
                  }
                }
              }
            }
          }
        }
      }
    }
    JOINT LeftLeg
    {
      OFFSET 10.043214 -8.434526 2.595655
      CHANNELS 3 Zrotation Yrotation Xrotation
      JOINT LeftShin
      {
        OFFSET -1e-06 -43.221752 -0.802913
        CHANNELS 3 Zrotation Yrotation Xrotation
        JOINT LeftFoot
        {
          OFFSET 1e-06 -42.155094 -3.481523
          CHANNELS 3 Zrotation Yrotation Xrotation
          JOINT LeftToeBase
          {
            OFFSET 0.0 -5.059472 13.231529
            CHANNELS 3 Zrotation Yrotation Xrotation
            JOINT LeftToeEnd
            {
              OFFSET -0.009607 -1.647619 6.513017
              CHANNELS 3 Zrotation Yrotation Xrotation
            }
          }
        }
      }
    }
    JOINT RightLeg
    {
      OFFSET -10.047278 -8.29526 2.620317
      CHANNELS 3 Zrotation Yrotation Xrotation
      JOINT RightShin
      {
        OFFSET 1e-06 -43.362206 -0.805556
        CHANNELS 3 Zrotation Yrotation Xrotation
        JOINT RightFoot
        {
          OFFSET 2e-06 -42.117393 -3.478398
          CHANNELS 3 Zrotation Yrotation Xrotation
          JOINT RightToeBase
          {
            OFFSET -0.0 -5.079609 13.284196
            CHANNELS 3 Zrotation Yrotation Xrotation
            JOINT RightToeEnd
            {
              OFFSET 0.009532 -1.634378 6.460591
              CHANNELS 3 Zrotation Yrotation Xrotation
            }
          }
        }
      }
    }
  }
}
MOTION
Frames: 4
Frame Time: 0.03333333333333333
0.0 0.0 0.0 0.0 -0.0 0.0 1.13869 99.734634 -6.796209 -0.911956 -7.000321 0.951879 1.322867 -0.425044 -2.224371 -0.002705 -1.223624 -5.863557 0.777041 -3.563548 12.351132 -2.2169 3.057207 -2.187428 -2.549928 -6.016172 -3.345661 1.268084 -9.281828 -11.691287 7.7e-05 -2.3e-05 7e-06 0.005855 0.015319 -0.00025 0.741574 -3.715394 -10.537377 -0.73531 3.731363 -10.588537 -11.141731 -3.812942 14.344922 -48.910885 0.113897 1.26535 0.812893 -27.560507 -0.201915 5.463965 -1.307169 -27.34231 -5.882109 9.861286 0.70259 -10.936873 -0.360573 7.156205 -0.0 8.774827 -1e-06 -16.09758 17.972887 6.006707 -1.844033 2.498505 -2.507278 -10.163603 4.678946 4.621109 -20.976028 -1e-06 0.0 -21.226292 2.451698 -3.594002 2e-06 -6e-06 -1e-06 -1.362681 2.240798 -0.746323 -21.334917 0.584911 3.008322 -13.821217 -1e-06 0.0 -23.887175 -0.249078 -0.839487 -59.592896 2.580923 -1.269777 -0.294025 1.679688 0.833256 -14.218213 0.093217 1.30058 -34.212059 -0.287561 0.967166 -20.033218 0.964536 1.212841 2e-06 0.0 -1e-06 -3.44039 0.788233 0.501656 -15.928192 -3.167308 2.999707 -6.338829 -1e-06 1e-06 -18.123453 3.648184 -4.905673 -3e-06 0.0 -2e-06 14.033216 5.375034 16.289867 46.607803 22.096478 17.457926 0.208841 23.649996 0.104421 -6.337146 6.798576 1.562829 2.243538 -5.255033 -3.180155 14.282886 -0.826593 6.952502 -3e-06 -12.690601 -1e-06 16.065485 -17.877451 2.711771 1.665666 -1.95592 -2.878299 4.727797 -4.170585 4.993923 11.020521 4e-06 0.0 12.109048 -3.735713 -2.866782 -0.0 -0.0 -0.0 1.291984 -1.928549 -1.498088 14.800123 0.567469 3.865611 14.242564 -1.341735 -6.660655 19.631958 0.143927 -0.648244 49.486008 -0.616002 -6.238086 0.353028 -1.511149 -0.031941 20.222784 3.684309 2.316632 18.787266 5e-06 2e-06 10.751622 -0.479868 1.397908 0.0 0.0 -1e-06 3.273805 0.305947 -0.58011 21.486801 11.830371 2.266132 8.162921 4e-06 1e-06 18.399071 -3.798982 -4.940569 4e-06 1e-06 -1e-06 8.08715 10.443877 -0.979508 -0.017526 -0.205283 7.697573 -9.775006 3.35421 -6.569045 1.644937 -2.05075 -0.709777 -0.0 -0.0 2e-06 -6.846734 -1.250976 -4.740873 -0.050851 0.083985 7.123113 9.275817 -5.580119 -2.853446 -1.413161 0.920727 -0.763447 -0.0 -0.0 -1e-06 
0.0 0.0 0.0 0.0 -0.0 0.0 1.223953 99.715088 -6.789093 -0.944257 -6.859032 0.535736 1.267598 -0.429131 -2.396352 -0.02042 -1.23877 -5.939596 0.897962 -3.535918 12.366934 -2.264949 3.114254 -1.741659 -2.514314 -5.956198 -3.351597 1.092812 -9.155972 -11.317221 7.7e-05 -2.3e-05 6e-06 0.007577 0.017142 -0.004844 0.744685 -3.712199 -10.526516 -0.735487 3.732738 -10.577014 -10.97029 -3.695134 14.309215 -48.105274 0.465645 0.525065 0.703374 -28.574247 -0.16041 5.820221 -1.401199 -27.505405 -5.882112 9.861292 0.70259 -10.936878 -0.360573 7.15621 0.0 8.774831 -0.0 -16.135351 18.043161 5.954716 -1.844033 2.498506 -2.507279 -10.163606 4.678948 4.62111 -20.97604 -3e-06 -0.0 -21.226303 2.451698 -3.594005 1e-06 -5e-06 -1e-06 -1.362682 2.240798 -0.746324 -21.334929 0.584912 3.008322 -13.821223 -1e-06 1e-06 -23.887184 -0.249079 -0.839487 -59.559078 2.615299 -1.34346 -0.294025 1.67969 0.833257 -14.218218 0.093217 1.30058 -34.21207 -0.287563 0.967165 -20.033226 0.964537 1.212842 1e-06 0.0 -1e-06 -3.44039 0.788234 0.501656 -15.928196 -3.16731 2.999707 -6.33883 -1e-06 0.0 -18.123459 3.648185 -4.905675 -3e-06 1e-06 -1e-06 14.35229 5.158157 16.359465 46.462627 21.265871 15.894403 0.189509 22.129963 0.06009 -6.18802 6.686707 0.22487 2.243542 -5.255037 -3.180158 14.282892 -0.826594 6.952503 -2e-06 -12.690609 0.0 16.012838 -17.788471 2.686349 1.665665 -1.955922 -2.878299 4.727798 -4.170589 4.993927 11.020527 3e-06 -3e-06 12.109053 -3.735717 -2.866786 -0.0 -1e-06 -1e-06 1.291986 -1.928551 -1.498089 14.800131 0.567468 3.865608 14.242573 -1.341738 -6.660661 19.631969 0.143926 -0.648247 49.426659 -0.587895 -6.175307 0.35303 -1.511152 -0.03194 20.222795 3.684309 2.316629 18.787279 3e-06 -2e-06 10.751629 -0.479869 1.397904 -0.0 0.0 -1e-06 3.273808 0.305947 -0.580111 21.486816 11.830377 2.266132 8.162928 1e-06 -1e-06 18.399084 -3.798987 -4.940578 3e-06 1e-06 0.0 8.159311 10.490153 -0.646376 -0.015575 -0.233064 7.891579 -9.933153 3.010003 -6.636824 1.645184 -2.055448 -0.737475 0.0 -0.0 2e-06 -6.87102 -1.303255 -3.999545 -0.059714 0.063613 6.602483 9.280427 -5.599303 -2.714118 -1.41609 0.918103 -0.826567 0.0 -0.0 -1e-06 
0.0 0.0 0.0 0.0 -0.0 0.0 1.285314 99.686745 -6.735985 -0.980244 -6.697048 0.176283 1.245654 -0.428302 -2.60106 -0.032299 -1.262786 -6.011209 1.016258 -3.494465 12.352299 -2.343553 3.128058 -1.412757 -2.435658 -5.790323 -3.367367 0.929504 -8.960711 -10.793509 7.7e-05 -2.2e-05 6e-06 0.009444 0.024331 -0.008668 0.748528 -3.702796 -10.513924 -0.736055 3.738899 -10.560022 -11.095974 -3.544009 14.276391 -47.890396 0.542211 -0.115749 0.527107 -29.017923 -0.108696 5.892057 -1.386301 -27.322964 -5.882109 9.861288 0.702591 -10.936875 -0.360574 7.156209 1e-06 8.774829 0.0 -16.169621 18.097124 5.925929 -1.844032 2.498503 -2.507279 -10.163602 4.678946 4.621111 -20.97603 -5e-06 2e-06 -21.226292 2.451696 -3.594 1e-06 -5e-06 -1e-06 -1.362682 2.240798 -0.746324 -21.334921 0.584911 3.008324 -13.821217 -2e-06 2e-06 -23.887177 -0.24908 -0.839483 -59.541019 2.641266 -1.402233 -0.294023 1.679688 0.833257 -14.218213 0.093214 1.300581 -34.212063 -0.287565 0.967172 -20.03322 0.964536 1.212844 1e-06 0.0 -1e-06 -3.440389 0.788233 0.501656 -15.928191 -3.16731 2.999708 -6.338829 -1e-06 1e-06 -18.123453 3.648182 -4.905672 -4e-06 2e-06 -2e-06 14.701497 4.967424 16.470221 46.84063 20.333672 14.807809 0.11164 20.533241 -0.001627 -5.528392 6.488889 -1.122065 2.243541 -5.255037 -3.180157 14.282896 -0.826596 6.952503 -2e-06 -12.690603 -0.0 16.044798 -17.742702 2.650379 1.665667 -1.955923 -2.878298 4.727801 -4.170589 4.993922 11.020529 3e-06 -2e-06 12.109056 -3.735715 -2.866785 -0.0 0.0 -1e-06 1.291986 -1.928548 -1.498089 14.800132 0.567466 3.865606 14.242577 -1.341737 -6.660657 19.631971 0.143926 -0.648247 49.486748 -0.569131 -6.126086 0.35303 -1.511151 -0.03194 20.222797 3.684307 2.316628 18.787279 4e-06 -3e-06 10.751631 -0.479867 1.397905 -0.0 0.0 0.0 3.273809 0.305947 -0.580112 21.486818 11.830374 2.266131 8.16293 2e-06 -1e-06 18.399092 -3.798985 -4.940577 4e-06 -1e-06 -0.0 8.24303 10.510155 -0.38875 -0.01758 -0.255398 8.1726 -10.095974 2.720423 -6.873559 1.644065 -2.0565 -0.750733 0.0 -0.0 2e-06 -6.884717 -1.370195 -3.263362 -0.067897 0.041997 6.046415 9.317385 -5.638908 -2.636296 -1.416954 0.911602 -0.87358 -0.0 -0.0 -1e-06 
0.0 0.0 0.0 0.0 -0.0 0.0 1.327179 99.650162 -6.657831 -1.021266 -6.512468 -0.127983 1.244221 -0.425761 -2.820902 -0.042597 -1.279673 -6.079604 1.118743 -3.445573 12.340766 -2.40074 3.118746 -1.213378 -2.333453 -5.570295 -3.387575 0.801929 -8.718537 -10.142059 7.7e-05 -2.2e-05 6e-06 0.013154 0.039795 -0.013925 0.754499 -3.683973 -10.499004 -0.734937 3.752579 -10.539974 -11.522374 -3.363734 14.227642 -48.242332 0.37627 -0.658571 0.36938 -28.872883 -0.082041 5.763412 -1.259591 -27.111383 -5.882106 9.86129 0.702592 -10.936875 -0.360575 7.156208 0.0 8.774831 1e-06 -16.202892 18.130453 5.921319 -1.844032 2.498505 -2.507278 -10.163602 4.678948 4.621111 -20.976027 -4e-06 2e-06 -21.226292 2.451697 -3.594001 1e-06 -5e-06 -0.0 -1.362681 2.2408 -0.746323 -21.334917 0.58491 3.008324 -13.821217 -2e-06 2e-06 -23.887173 -0.249079 -0.839483 -59.53968 2.64352 -1.427724 -0.294025 1.679689 0.833257 -14.218212 0.093217 1.300581 -34.212059 -0.287564 0.967169 -20.033218 0.964537 1.212844 1e-06 -0.0 0.0 -3.440388 0.788233 0.501656 -15.928185 -3.167311 2.999707 -6.338827 0.0 1e-06 -18.123447 3.648186 -4.905672 -3e-06 2e-06 -1e-06 15.128839 4.828726 16.61783 47.699268 19.382727 13.893091 0.008408 18.769234 -0.049861 -4.585105 6.102295 -2.691513 2.243543 -5.255036 -3.180158 14.282896 -0.826596 6.952499 -1e-06 -12.690605 -1e-06 16.111559 -17.730194 2.639966 1.665667 -1.95592 -2.878299 4.7278 -4.170588 4.993924 11.020529 2e-06 -2e-06 12.109056 -3.735716 -2.866784 -0.0 0.0 -2e-06 1.291985 -1.928549 -1.498088 14.800132 0.567467 3.865604 14.242579 -1.341737 -6.66066 19.631973 0.143926 -0.648248 49.609814 -0.550913 -6.079094 0.35303 -1.511149 -0.03194 20.222797 3.684309 2.316625 18.787279 6e-06 -4e-06 10.75163 -0.479868 1.397903 1e-06 1e-06 0.0 3.273808 0.305947 -0.580112 21.486818 11.830374 2.26613 8.162929 3e-06 -1e-06 18.399084 -3.798984 -4.940578 2e-06 -1e-06 -0.0 8.33163 10.480026 -0.235114 -0.019417 -0.270096 8.568648 -10.230929 2.475583 -7.024525 1.643993 -2.055929 -0.747943 0.0 -0.0 2e-06 -6.84061 -1.451098 -2.594895 -0.074299 0.023223 5.552066 9.358443 -5.709249 -2.671209 -1.416448 0.911547 -0.907689 0.0 -0.0 -1e-06 
